<svg xmlns="http://www.w3.org/2000/svg" viewBox="0 0 9.36 9.36"><defs><style>.cls-1{fill:#e5a624;}</style></defs><title>call</title><g id="Layer_2" data-name="Layer 2"><g id="Layer_1-2" data-name="Layer 1"><path class="cls-1" d="M0,1.1A1.08,1.08,0,0,1,.29.36,1.09,1.09,0,0,1,1.1,0H2.58A1.09,1.09,0,0,1,3.67,1a4.65,4.65,0,0,0,.2,1A1.11,1.11,0,0,1,3.6,3L3,3.63A6.81,6.81,0,0,0,5.72,6.36l.6-.6a1.11,1.11,0,0,1,1.1-.27,4.65,4.65,0,0,0,1,.2,1.09,1.09,0,0,1,1,1.09V8.26a1.1,1.1,0,0,1-1.2,1.09,8.65,8.65,0,0,1-3-.83A9,9,0,0,1,2.61,6.75,9,9,0,0,1,.84,4.24,8.88,8.88,0,0,1,0,1.2V1.1ZM3.18,2.26a.41.41,0,0,0,0-.11,5.81,5.81,0,0,1-.23-1.1A.37.37,0,0,0,2.58.73H1.1A.34.34,0,0,0,.83.85a.38.38,0,0,0-.1.29A8.3,8.3,0,0,0,8.22,8.63a.38.38,0,0,0,.29-.1.36.36,0,0,0,.12-.27V6.78a.37.37,0,0,0-.32-.36,5.81,5.81,0,0,1-1.1-.23.36.36,0,0,0-.37.09l-1,1-.24-.11A7.6,7.6,0,0,1,2.22,3.73l-.11-.24,1-1a.35.35,0,0,0,.1-.26Z"/></g></g></svg>