<svg xmlns="http://www.w3.org/2000/svg" viewBox="0 0 11.85 8.5"><defs><style>.cls-1{fill:#e5a624;}</style></defs><title>contacts</title><g id="Layer_2" data-name="Layer 2"><g id="Layer_1-2" data-name="Layer 1"><path class="cls-1" d="M11.78.79h0V.65l0,0V.51l0,0v0h0v0l0,0h0l0,0v0h0v0l0,0h0l0,0h0v0h0l0,0H.52l0,0h0l0,0h0v0h0l0,0,0,0h0l0,0v0h0v0l0,0h0v0l0,0V.55l0,0V.78h0A1.15,1.15,0,0,0,0,1.16V7.34A1.17,1.17,0,0,0,1.12,8.5h9.57a1.14,1.14,0,0,0,1.1-.8s0,0,0-.06a1.54,1.54,0,0,0,0-.3V1.16a.94.94,0,0,0-.07-.37ZM.92.85h10L6.2,5.6a.41.41,0,0,1-.28.11.39.39,0,0,1-.27-.11L.92.86Zm-.15,1L3.21,4.25.77,6.69Zm9.92,5.92H1.17a.42.42,0,0,1-.25-.09L3.76,4.8,5.1,6.14a1.16,1.16,0,0,0,1.64,0L8.09,4.79l2.85,2.85a.45.45,0,0,1-.25.09Zm.38-1.05L8.64,4.25l2.43-2.44Z"/></g></g></svg>