<svg xmlns="http://www.w3.org/2000/svg" viewBox="0 0 32.78 62.33"><defs><style>.cls-1{fill:#1b6d38;}</style></defs><title>facebook</title><g id="Layer_2" data-name="Layer 2"><g id="Layer_1-2" data-name="Layer 1"><path class="cls-1" d="M24.58,0c1.67,0,3.35.09,5,.17,1.09,0,2.17.19,3.19.31l-.08,10H28.6c-.83,0-1.65,0-2.48,0-2.66.09-4.61,1.09-4.75,4.41-.09,2.39-.15,7.68-.15,8H32.3c-.54,3.86-1,7.56-1.57,11.28H21.22L21,62.33H9.33l.22-28.2H0L.09,22.92H9.68v-.85c0-2.25,0-4.51.08-6.77a28.35,28.35,0,0,1,.36-4.3,12.75,12.75,0,0,1,5.12-8.38A14.74,14.74,0,0,1,23.65,0Z"/></g></g></svg>