<svg xmlns="http://www.w3.org/2000/svg" viewBox="0 0 9.51 9.51"><defs><style>.cls-1{fill:#e5a624;}</style></defs><title>hours</title><g id="Layer_2" data-name="Layer 2"><g id="Layer_1-2" data-name="Layer 1"><path class="cls-1" d="M4.77,0A4.76,4.76,0,1,1,0,4.71,4.74,4.74,0,0,1,4.77,0Zm0,.54A4.22,4.22,0,1,0,9,4.78,4.21,4.21,0,0,0,4.77.54Z"/><path class="cls-1" d="M4.75,5.3a.54.54,0,0,1-.53-.47.35.35,0,0,0-.1-.19C3.41,3.92,2.69,3.21,2,2.49a1.59,1.59,0,0,1-.13-.13.27.27,0,0,1,0-.34.26.26,0,0,1,.34,0,.47.47,0,0,1,.1.1L4.37,4.17a.19.19,0,0,0,.23.07.62.62,0,0,1,.33,0,.17.17,0,0,0,.18,0c.35-.36.71-.71,1.06-1.06a.25.25,0,0,1,.35-.06.24.24,0,0,1,0,.4l-1,1a.86.86,0,0,0-.3.48A.49.49,0,0,1,4.75,5.3Z"/><path class="cls-1" d="M1.91,4.59v.33H.8V4.59Z"/><path class="cls-1" d="M4.59,1.91V.8h.33V1.91Z"/><path class="cls-1" d="M8.71,4.93H7.6V4.59H8.71Z"/><path class="cls-1" d="M4.58,7.6h.34V8.71H4.58Z"/></g></g></svg>