<svg xmlns="http://www.w3.org/2000/svg" viewBox="0 0 60.72 60.69"><defs><style>.cls-1{fill:#1b6d38;}</style></defs><title>insta</title><g id="Layer_2" data-name="Layer 2"><g id="Layer_1-2" data-name="Layer 1"><path class="cls-1" d="M46.66,10.56h.05a3.6,3.6,0,0,1,3.6,3.65,3.67,3.67,0,0,1-3.68,3.63,3.64,3.64,0,0,1,0-7.28Z"/><path class="cls-1" d="M60.35,15.24c.45,4.77.74,27.35-.67,32.64-1.88,6.92-6.39,11-13.4,12.14a150.64,150.64,0,0,1-16.74.67c-7.23,0-14.45-.27-16.87-.89C5.78,58,1.67,53.53.58,46.56c-.81-5.12-.9-28.91.58-34.08C3.09,5.75,7.58,1.8,14.39.68A119.38,119.38,0,0,1,29.6,0C35.26,0,41,.15,44.42.34A16.7,16.7,0,0,1,55.5,4.88,16,16,0,0,1,60.35,15.24ZM54.51,45.56c.87-5.34.87-24.82.37-29.81-.54-5.34-3.81-8.85-9.09-9.68A138.7,138.7,0,0,0,30.61,5.5c-6,0-12.06.16-14.7.45-5.3.61-8.86,3.87-9.7,9.14C5.34,20.67,5.35,41.54,6,45.73a9.85,9.85,0,0,0,7.49,8.58c2.36.66,9.41.9,16.33.9,6.36,0,12.62-.2,15-.46,5.34-.59,8.87-3.88,9.72-9.19"/><path class="cls-1" d="M30.49,14.8A15.42,15.42,0,0,1,45.92,30.37,15.72,15.72,0,0,1,30.23,45.93,15.42,15.42,0,0,1,14.79,30.35,15.68,15.68,0,0,1,30.49,14.8Zm-.23,25.62a10.17,10.17,0,0,0,10.15-10,10,10,0,0,0-9.89-10.17h-.09a10.16,10.16,0,0,0-10.15,10,10,10,0,0,0,9.89,10.17h.09"/></g></g></svg>