<svg xmlns="http://www.w3.org/2000/svg" viewBox="0 0 57.48 57.58"><defs><style>.cls-1{fill:#1b6d38;}</style></defs><title>linkedin</title><g id="Layer_2" data-name="Layer 2"><g id="Layer_1-2" data-name="Layer 1"><path class="cls-1" d="M7,0a6.86,6.86,0,0,1,6.88,6.93,7,7,0,0,1-7,6.93A6.88,6.88,0,0,1,0,6.93,7,7,0,0,1,7,0Z"/><polygon class="cls-1" points="12.83 19.1 12.54 57.58 0.57 57.58 0.87 19.1 12.83 19.1"/><path class="cls-1" d="M43.27,18.16c12.12,0,14.29,8,14.21,18.32l-.16,21.1H45.38l.14-18.7c0-4.48,0-10.22-6.15-10.22s-7.19,4.86-7.23,9.89l-.15,19H20l.29-38.48H31.78l0,5.26h.18A12.69,12.69,0,0,1,43.27,18.16Z"/></g></g></svg>