<svg xmlns="http://www.w3.org/2000/svg" viewBox="0 0 7.51 9.74"><defs><style>.cls-1{fill:#e5a624;}</style></defs><title>location</title><g id="Layer_2" data-name="Layer 2"><g id="Layer_1-2" data-name="Layer 1"><path class="cls-1" d="M3.75,0A3.75,3.75,0,0,0,0,3.76,6.64,6.64,0,0,0,1.79,8.08,9.47,9.47,0,0,0,3.57,9.69a.31.31,0,0,0,.18.05.32.32,0,0,0,.19-.05A9.47,9.47,0,0,0,5.72,8.08,6.64,6.64,0,0,0,7.51,3.76,3.76,3.76,0,0,0,3.75,0Zm0,9C3.06,8.48.67,6.5.67,3.76a3.09,3.09,0,1,1,6.17,0C6.84,6.5,4.45,8.48,3.75,9Z"/><path class="cls-1" d="M3.76,2.26A1.49,1.49,0,1,0,5.25,3.75,1.5,1.5,0,0,0,3.76,2.26Zm0,2.31a.82.82,0,1,1,.81-.82.81.81,0,0,1-.81.82Z"/></g></g></svg>