<?xml version="1.0" encoding="utf-8"?>
<!-- Generator: Adobe Illustrator 24.0.2, SVG Export Plug-In . SVG Version: 6.00 Build 0)  -->
<svg version="1.1" id="Layer_1" xmlns="http://www.w3.org/2000/svg" xmlns:xlink="http://www.w3.org/1999/xlink" x="0px" y="0px"
	 viewBox="0 0 207.7 174.6" style="enable-background:new 0 0 207.7 174.6;" xml:space="preserve">
<style type="text/css">
	.st0{fill:#4A4A4D;}
	.st1{fill:#202021;}
	.st2{fill:#B2C3CE;}
	.st3{fill:#FFFFFF;}
	.st4{fill:#F3B01C;}
</style>
<path class="st0" d="M192,166.9L84.2,119.4c0,0,0,0,0-0.1c0.7-1.9,1.7-4.4,2.8-7.2l0.2,0.1l0.2,0.1l102.3,45.2L192,166.9z"/>
<polygon class="st1" points="27.9,113.5 27.9,113.5 26.9,113.4 26.9,113.4 "/>
<path class="st1" d="M107,59C107.1,59,107.1,59,107,59c-0.1,0.3-0.2,0.7-0.3,1.1l-0.1,0L107,59z"/>
<polygon class="st1" points="129.5,64.9 129.2,65.8 129.2,65.8 "/>
<path class="st0" d="M195.3,66.4l-2.1,14.2l-19.7-5.2l-1.1-0.3l-20-5.2l-0.6-0.1l-0.4-0.1c-7.9-2-19-4.9-21.5-5.6
	c-0.2-0.1-0.4-0.1-0.5-0.1l0,0l0,0c-0.1,0-0.2-0.1-0.4-0.1c-3.1-0.8-20.8-5.5-22-5.8c0,0,0,0,0,0L45.7,38.8l-7.9,6L26,112.3
	l-0.1,0.6l-0.1,0.4L20.7,145c-3.6,0.2-12.1,0.6-12-0.1c0.1-0.9,18-102.7,18-102.7l-1.9-13.1l-7.6-16.5l13.3-5.5l11.3,15.8l71.6,22.4
	L195.3,66.4z"/>
<g>
	<polygon class="st2" points="82.9,119.1 57.6,116 56.5,115.9 28.5,112.6 56.6,115.9 57.6,116 	"/>
	<path class="st2" d="M106.1,58.7c-0.1,0.3-0.2,0.6-0.4,1.1c-1.3,3.6-4.8,13.1-8.9,23.8c-0.1,0.4-0.3,0.8-0.4,1.2
		c-3.2,8.4-6.7,17.5-9.5,24.9c-0.3,0.7-0.5,1.4-0.8,2.1c-1,2.7-2,5.2-2.8,7.2c0,0,0,0.1,0,0.1l-0.4,0l-25.3-3l-1-0.1l-28.1-3.3
		l-0.4,0l-1-0.1l11.8-67.1l1.4-1.1l5.7-4.4l25.7,8L106.1,58.7L106.1,58.7z"/>
	<path class="st2" d="M107,59l-0.4,1.1l0.1,0C106.9,59.7,107,59.3,107,59C107.1,59,107.1,59,107,59z M57.4,117L57.4,117l25.6,3.1
		L57.4,117z M27.9,113.5l-1-0.1v0L27.9,113.5l28.5,3.4l0,0L27.9,113.5z M25.8,113.3L25.8,113.3l0.1-0.4L25.8,113.3z"/>
</g>
<g>
	<polygon class="st2" points="56.4,116.9 50.8,158.5 27.1,153 21.7,145.3 21.8,144.9 26.9,113.4 27.9,113.5 	"/>
	<polygon class="st2" points="56.4,116.9 56.4,116.9 27.9,113.5 26.9,113.4 26.9,113.4 27.9,113.5 	"/>
	<path class="st2" d="M56.6,115.9l-28.1-3.3L56.6,115.9l1,0.1l0,0L56.6,115.9z M26,112.3l-0.1,0.6L26,112.3L26,112.3z"/>
</g>
<g>
	<polygon class="st2" points="83,120.1 78.5,164.9 51.8,158.8 52,156.9 57.4,117.1 57.4,117.1 57.4,117 	"/>
	<path class="st2" d="M57.6,116l-1-0.1l0,0L57.6,116l25.3,3L57.6,116z M57.4,117.1L52,156.9L57.4,117.1L57.4,117.1z"/>
</g>
<path class="st2" d="M118.1,92.2L108,119.1l-0.4,1l-20.2-8.8l0,0l0.4-1.1l9.5-25c0,0,0.1,0,0.2,0.1C98.9,85.8,103.6,87.4,118.1,92.2
	z"/>
<g>
	<path class="st2" d="M128.5,64.7l-0.3,0.9l-0.4,1.1l-9.3,24.7l0,0l-20.7-7.1l-0.2-0.1l9.1-24l0.1,0c0.2-0.5,0.3-0.8,0.4-1.1
		C110,59.8,125.4,63.8,128.5,64.7z"/>
	<path class="st2" d="M107.1,59c-0.1,0.3-0.2,0.6-0.4,1.1l-0.1,0L107.1,59C107.1,59,107.1,59,107.1,59z"/>
	<path class="st2" d="M129.6,63.9c0.1,0,0.2,0.1,0.3,0.1l0,0L129.6,63.9z"/>
</g>
<g>
	<path class="st2" d="M119.4,91.5L119.4,91.5l9.8-25.7L119.4,91.5z"/>
	<path class="st2" d="M151,70.5l-0.3,0.7l-10.4,27.5l-20.9-7.2l9.7-25.8l0.3-0.8C132.2,65.7,143.6,68.6,151,70.5z"/>
</g>
<polygon class="st2" points="140,99.7 132.3,120.1 129.2,128.5 128.8,129.4 108.5,120.5 108.9,119.5 108.9,119.5 119.1,92.6 
	140,99.7 "/>
<polygon class="st2" points="160.6,106.7 149.1,137.4 148.7,138.3 129.8,129.8 130.1,128.9 133.2,120.7 141,100 141,100 "/>
<path class="st3" d="M149.7,138.7L149.7,138.7l0.3-0.9l11.6-30.7L149.7,138.7z M141,100l-7.8,20.7L141,100L141,100z M140,99.7
	l-7.7,20.4L140,99.7L140,99.7z M141,100l-7.8,20.7L141,100L141,100z"/>
<path class="st2" d="M181.3,113.8l-12.5,32.9l-0.2,0.5c-2.8-1.2-16.3-7.3-18.9-8.5c0,0,0,0,0,0h0l11.9-31.6l0,0h0L181.3,113.8z"/>
<polygon class="st2" points="197.7,119.4 192.9,154.2 189.8,156.5 169.6,147.6 182.2,114.1 182.2,114.1 "/>
<g>
	<polygon class="st2" points="201.5,91.3 197.8,118.4 162,106.1 173,76.8 173.2,76.3 193.1,81.6 193.3,81.6 	"/>
</g>
<g>
	<polygon class="st2" points="172.1,76 171.9,76.5 161,105.8 141.4,99 151.8,71.5 151.8,71.5 152,70.8 	"/>
</g>
<g>
	<rect x="89.5" y="117" transform="matrix(0.4011 -0.916 0.916 0.4011 -54.3253 152.856)" class="st4" width="0.5" height="2"/>
	<path class="st4" d="M182.9,159.1l-3.6-1.6l0.2-0.5l3.6,1.6L182.9,159.1z M175.8,155.9l-3.6-1.6l0.2-0.5l3.6,1.6L175.8,155.9z
		 M168.7,152.8l-3.6-1.6l0.2-0.5l3.6,1.6L168.7,152.8z M161.6,149.7l-3.6-1.6l0.2-0.5l3.6,1.6L161.6,149.7z M154.5,146.6l-3.6-1.6
		l0.2-0.5l3.6,1.6L154.5,146.6z M147.4,143.5l-3.6-1.6l0.2-0.5l3.6,1.6L147.4,143.5z M140.3,140.4l-3.6-1.6l0.2-0.5l3.6,1.6
		L140.3,140.4z M133.2,137.3l-3.6-1.6l0.2-0.5l3.6,1.6L133.2,137.3z M126.1,134.2l-3.6-1.6l0.2-0.5l3.6,1.6L126.1,134.2z M119,131.1
		l-3.6-1.6l0.2-0.5l3.6,1.6L119,131.1z M111.9,127.9l-3.6-1.6l0.2-0.5l3.6,1.6L111.9,127.9z M104.8,124.8l-3.6-1.6l0.2-0.5l3.6,1.6
		L104.8,124.8z M97.7,121.7l-3.6-1.6l0.2-0.5l3.6,1.6L97.7,121.7z"/>
	
		<rect x="187.2" y="159.8" transform="matrix(0.4014 -0.9159 0.9159 0.4014 -35.051 267.9373)" class="st4" width="0.5" height="2"/>
</g>
<path class="st4" d="M15.7,142l-0.5-0.1l0.7-3.9l0.5,0.1L15.7,142z M17.1,134.2l-0.5-0.1l0.7-3.9l0.5,0.1L17.1,134.2z M18.4,126.3
	l-0.5-0.1l0.7-3.9l0.5,0.1L18.4,126.3z M19.8,118.4l-0.5-0.1l0.7-3.9l0.5,0.1L19.8,118.4z M21.2,110.5l-0.5-0.1l0.7-3.9l0.5,0.1
	L21.2,110.5z M22.5,102.6l-0.5-0.1l0.7-3.9l0.5,0.1L22.5,102.6z M23.9,94.7l-0.5-0.1l0.7-3.9l0.5,0.1L23.9,94.7z M25.2,86.8
	l-0.5-0.1l0.7-3.9l0.5,0.1L25.2,86.8z M26.6,79l-0.5-0.1l0.7-3.9l0.5,0.1L26.6,79z M27.9,71.1L27.4,71l0.7-3.9l0.5,0.1L27.9,71.1z
	 M29.3,63.2l-0.5-0.1l0.7-3.9l0.5,0.1L29.3,63.2z M30.6,55.3l-0.5-0.1l0.7-3.9l0.5,0.1L30.6,55.3z M32,47.4l-0.5-0.1l0.7-3.9
	l0.5,0.1L32,47.4z M33.3,39.5l-0.5-0.1l0.7-3.9l0.5,0.1L33.3,39.5z M34.7,31.7l-0.5-0.1l0.2-1L33.1,28l0.5-0.2l1.3,2.7L34.7,31.7z
	 M31.4,24.4l-1.7-3.6l0.5-0.2l1.7,3.6L31.4,24.4z M27.9,17.2l-1.7-3.6l0.5-0.2l1.7,3.6L27.9,17.2z"/>
<path class="st4" d="M192,72.9l-3.9-1l0.1-0.5l3.9,1L192,72.9z M184.2,70.9l-3.9-1l0.1-0.5l3.9,1L184.2,70.9z M176.4,69l-3.9-1
	l0.1-0.5l3.9,1L176.4,69z M168.7,67l-3.9-1l0.1-0.5l3.9,1L168.7,67z M160.9,65.1l-3.9-1l0.1-0.5l3.9,1L160.9,65.1z M153.2,63.2
	l-3.9-1l0.1-0.5l3.9,1L153.2,63.2z M145.4,61.2l-3.9-1l0.1-0.5l3.9,1L145.4,61.2z M137.6,59.3l-3.9-1l0.1-0.5l3.9,1L137.6,59.3z
	 M129.9,57.3l-3.9-1l0.1-0.5l3.9,1L129.9,57.3z M122.1,55.4l-3.9-1l0.1-0.5l3.9,1L122.1,55.4z M114.4,53.5l-3.9-1l0.1-0.5l3.9,1
	L114.4,53.5z M106.6,51.4l-3.8-1.2l0.1-0.5l3.8,1.2L106.6,51.4z M99,49l-3.8-1.2l0.1-0.5l3.8,1.2L99,49z M91.3,46.6l-3.8-1.2
	l0.1-0.5l3.8,1.2L91.3,46.6z M83.7,44.2L79.9,43l0.1-0.5l3.8,1.2L83.7,44.2z M76.1,41.8l-3.8-1.2l0.1-0.5l3.8,1.2L76.1,41.8z
	 M68.4,39.4l-3.8-1.2l0.1-0.5l3.8,1.2L68.4,39.4z M60.8,37L57,35.8l0.1-0.5l3.8,1.2L60.8,37z M53.2,34.6l-3.8-1.2l0.1-0.5l3.8,1.2
	L53.2,34.6z M45.5,32.2l-1.7-0.5l-2.1-0.8l0.2-0.5l2.1,0.8l1.7,0.5L45.5,32.2z M38,29.4L34.3,28l0.2-0.5l3.7,1.5L38,29.4z"/>
</svg>
