<svg xmlns="http://www.w3.org/2000/svg" viewBox="0 0 50.52 58.01"><defs><style>.cls-1{fill:#1b6d38;fill-rule:evenodd;}</style></defs><title>tiktok</title><g id="Layer_2" data-name="Layer 2"><g id="Layer_1-2" data-name="Layer 1"><path class="cls-1" d="M50.26,23.64c-8.06.17-9.92-3.18-14.33-6.2V40.69c-.51.85-.06,2.21-.39,3.49a23.17,23.17,0,0,1-3.1,7c-6.35,8.79-22,9.37-28.68.39-9.37-12.7-.12-29,15.5-28.68,0,2.61.32,6.18-.25,8.41a8.77,8.77,0,0,0-1-.06,9.29,9.29,0,1,0,6.09,16.3,6.32,6.32,0,0,0,1.39-1.39A6.75,6.75,0,0,0,26.14,45a0,0,0,0,1,0,0,14.43,14.43,0,0,0,1.12-4.64c.25-2.72.13-5.84.13-8.9V0h8.53a15.19,15.19,0,0,0,9.3,12.79c1.44.61,3.39.37,4.65,1.16C51,15.71,50.31,21.07,50.26,23.64Z"/></g></g></svg>