<svg xmlns="http://www.w3.org/2000/svg" viewBox="0 0 63.96 51.83"><defs><style>.cls-1{fill:#1b6d38;}</style></defs><title>twitter</title><g id="Layer_2" data-name="Layer 2"><g id="Layer_1-2" data-name="Layer 1"><path class="cls-1" d="M64,6.2a21.24,21.24,0,0,1-1.48,2,25,25,0,0,1-4.78,4.53l-.23.42a35.29,35.29,0,0,1-.29,5.8,38.82,38.82,0,0,1-3.44,11.65,38.35,38.35,0,0,1-7.16,10.31A35.19,35.19,0,0,1,28.51,51a41.46,41.46,0,0,1-7.3.86H20A36.73,36.73,0,0,1,.32,46.19L0,46a29.19,29.19,0,0,0,3.08.17,26.5,26.5,0,0,0,10-2,25.74,25.74,0,0,0,6.25-3.65,13,13,0,0,1-12.1-9.08,12.51,12.51,0,0,0,2.43.24,13.83,13.83,0,0,0,3.18-.39l.2-.09a13,13,0,0,1-10.34-13,12.93,12.93,0,0,0,5.82,1.57A13.11,13.11,0,0,1,4.71,2.43,37.11,37.11,0,0,0,31.59,16.12c-.07-.54-.14-1-.21-1.45a12.73,12.73,0,0,1,2-8.54A12.64,12.64,0,0,1,42.29.2,15.19,15.19,0,0,1,44.67,0a12.59,12.59,0,0,1,9,3.85.68.68,0,0,0,.48.22.82.82,0,0,0,.21,0A26.09,26.09,0,0,0,62,1.13L62.22,1a12.94,12.94,0,0,1-5.57,7.12A25.05,25.05,0,0,0,64,6.2Z"/></g></g></svg>