<svg xmlns="http://www.w3.org/2000/svg" viewBox="0 0 85.44 15.84"><defs><style>.cls-1{fill:#fff;}.cls-2{fill:#e5a624;}</style></defs><title>White logo</title><g id="Layer_2" data-name="Layer 2"><g id="Layer_1-2" data-name="Layer 1"><path class="cls-1" d="M25.3,12.59a.72.72,0,0,1-.09.44c-.05.07-.18.1-.36.1H20.41A.68.68,0,0,1,20,13a.48.48,0,0,1-.1-.37V4.86a.48.48,0,0,1,.1-.37.68.68,0,0,1,.42-.09h1a.72.72,0,0,1,.43.09.53.53,0,0,1,.1.37v6.48h3a.45.45,0,0,1,.36.11.7.7,0,0,1,.09.43Z" transform="translate(0)"/><path class="cls-1" d="M28.87,9.07l.52,0,.63,0V8.81a1.23,1.23,0,0,0-.2-.81,1,1,0,0,0-.73-.23.76.76,0,0,0-.69.33.6.6,0,0,1-.21.23.73.73,0,0,1-.34.05h-.92c-.29,0-.44-.11-.44-.35a1.21,1.21,0,0,1,.18-.63,2,2,0,0,1,1-.78,4.3,4.3,0,0,1,1.61-.27,2.9,2.9,0,0,1,2,.59,2.47,2.47,0,0,1,.63,1.87V11a2.2,2.2,0,0,1-.65,1.75,3,3,0,0,1-2,.56h-.42a3.23,3.23,0,0,1-2-.49,1.89,1.89,0,0,1-.62-1.56,2,2,0,0,1,.64-1.62A3.19,3.19,0,0,1,28.87,9.07Zm.3,1.31a1.6,1.6,0,0,0-.84.17.6.6,0,0,0-.26.55q0,.78.87.78h.15a.87.87,0,0,0,.73-.26,1.39,1.39,0,0,0,.2-.87v-.29c-.13,0-.27,0-.42-.06Z" transform="translate(0)"/><path class="cls-1" d="M36.93,6.35a2,2,0,0,1,1.57.59,2.4,2.4,0,0,1,.55,1.69v4a.48.48,0,0,1-.11.37.68.68,0,0,1-.42.09h-.9A.68.68,0,0,1,37.2,13a.48.48,0,0,1-.11-.37V9c0-.61-.28-.92-.86-.92a1,1,0,0,0-.76.27,1,1,0,0,0-.28.77v3.59a.48.48,0,0,1-.1.37.7.7,0,0,1-.43.09h-.89a.72.72,0,0,1-.43-.09.48.48,0,0,1-.1-.37V7a.51.51,0,0,1,.1-.38.72.72,0,0,1,.43-.09h.86a.68.68,0,0,1,.42.09.51.51,0,0,1,.1.38v.25a2,2,0,0,1,.75-.65A2.29,2.29,0,0,1,36.93,6.35Z" transform="translate(0)"/><path class="cls-1" d="M46.23,10.53a2.61,2.61,0,0,1-.82,2,3.18,3.18,0,0,1-2.24.75A3.06,3.06,0,0,1,41,12.56a2.67,2.67,0,0,1-.79-2.06V9.16a3,3,0,0,1,.68-2.06,2.43,2.43,0,0,1,1.88-.75,2,2,0,0,1,1.52.5v-2a.48.48,0,0,1,.11-.37.68.68,0,0,1,.42-.09h.9a.68.68,0,0,1,.42.09.48.48,0,0,1,.11.37ZM43.17,7.88c-.69,0-1,.44-1,1.31v1.27a1.51,1.51,0,0,0,.27,1,1,1,0,0,0,.81.34c.7,0,1.05-.44,1.05-1.31V9.19a1.46,1.46,0,0,0-.28-1A1,1,0,0,0,43.17,7.88Z" transform="translate(0)"/><path class="cls-1" d="M54.78,12.61a.41.41,0,0,1,0,.12.35.35,0,0,1,0,.12c0,.19-.12.28-.34.28H53.34a.53.53,0,0,1-.36-.08.87.87,0,0,1-.21-.42l-.42-1.34H49.42L49,12.66a.85.85,0,0,1-.19.39.59.59,0,0,1-.39.08H47.37c-.23,0-.35-.09-.35-.28a.43.43,0,0,1,0-.24l2.6-7.8a.72.72,0,0,1,.19-.33.62.62,0,0,1,.37-.08h1.42a.6.6,0,0,1,.36.08.62.62,0,0,1,.19.33Zm-4.9-2.89h2l-1-3.3Z" transform="translate(0)"/><path class="cls-1" d="M58.31,13.31a4.44,4.44,0,0,1-1.11-.13,2.8,2.8,0,0,1-.85-.32,1.78,1.78,0,0,1-.6-.59,1.37,1.37,0,0,1-.22-.73c0-.27.14-.41.43-.41h1a.74.74,0,0,1,.33,0,.5.5,0,0,1,.16.22c.1.26.4.38.89.38a1.22,1.22,0,0,0,.63-.11.43.43,0,0,0,.19-.4.44.44,0,0,0-.19-.39,2.93,2.93,0,0,0-.81-.31l-.79-.22c-1.16-.33-1.75-.94-1.75-1.84V8.34a1.71,1.71,0,0,1,.74-1.45,3.27,3.27,0,0,1,2-.54,5.17,5.17,0,0,1,1.22.14,2.22,2.22,0,0,1,.86.41A1.42,1.42,0,0,1,61,8a.38.38,0,0,1-.11.32.55.55,0,0,1-.39.1h-.93a.71.71,0,0,1-.3,0,.46.46,0,0,1-.17-.19c-.13-.25-.42-.38-.87-.38a1.1,1.1,0,0,0-.56.13.41.41,0,0,0-.2.38.36.36,0,0,0,.17.33,2.42,2.42,0,0,0,.67.25l.91.24a2.75,2.75,0,0,1,1.39.69,1.69,1.69,0,0,1,.44,1.2v.17a1.84,1.84,0,0,1-.71,1.54A3.31,3.31,0,0,1,58.31,13.31Z" transform="translate(0)"/><path class="cls-1" d="M64.68,13.31a4.44,4.44,0,0,1-1.11-.13,2.8,2.8,0,0,1-.85-.32,1.78,1.78,0,0,1-.6-.59,1.37,1.37,0,0,1-.22-.73c0-.27.14-.41.43-.41h1a.74.74,0,0,1,.33,0,.5.5,0,0,1,.16.22c.1.26.4.38.89.38a1.22,1.22,0,0,0,.63-.11.43.43,0,0,0,.19-.4.44.44,0,0,0-.19-.39,2.93,2.93,0,0,0-.81-.31l-.79-.22C62.57,10,62,9.41,62,8.51V8.34a1.71,1.71,0,0,1,.74-1.45,3.27,3.27,0,0,1,2-.54,5.17,5.17,0,0,1,1.22.14,2.22,2.22,0,0,1,.86.41A1.42,1.42,0,0,1,67.37,8a.38.38,0,0,1-.11.32.55.55,0,0,1-.39.1h-.93a.71.71,0,0,1-.3,0,.46.46,0,0,1-.17-.19c-.13-.25-.42-.38-.87-.38A1.1,1.1,0,0,0,64,8a.41.41,0,0,0-.2.38.36.36,0,0,0,.17.33,2.42,2.42,0,0,0,.67.25l.91.24A2.75,2.75,0,0,1,67,9.85a1.69,1.69,0,0,1,.44,1.2v.17a1.84,1.84,0,0,1-.71,1.54A3.31,3.31,0,0,1,64.68,13.31Z" transform="translate(0)"/><path class="cls-1" d="M70.29,10.35v.05a1.81,1.81,0,0,0,.24,1,1,1,0,0,0,.89.32,1.66,1.66,0,0,0,.54-.08.74.74,0,0,0,.35-.35.45.45,0,0,1,.15-.18.62.62,0,0,1,.32-.06h1a.43.43,0,0,1,.33.09.4.4,0,0,1,.09.29A1.08,1.08,0,0,1,74,12a2,2,0,0,1-.29.43,2.21,2.21,0,0,1-1,.67,4.3,4.3,0,0,1-1.36.21,3.12,3.12,0,0,1-2.2-.72,2.76,2.76,0,0,1-.77-2.14V9.28a2.89,2.89,0,0,1,.79-2.16,3,3,0,0,1,2.2-.77,2.87,2.87,0,0,1,2.1.76,3,3,0,0,1,.79,2.19v.58c0,.2,0,.33-.11.38a.68.68,0,0,1-.42.09Zm1-2.51a.91.91,0,0,0-.7.27,1.38,1.38,0,0,0-.28.92h2a1.56,1.56,0,0,0-.24-.9A.9.9,0,0,0,71.29,7.84Z" transform="translate(0)"/><path class="cls-1" d="M77.93,13.13a2.28,2.28,0,0,1-1.68-.51,2.36,2.36,0,0,1-.51-1.71V8.05h-.41a.57.57,0,0,1-.4-.1.56.56,0,0,1-.1-.38V7a.46.46,0,0,1,.11-.35.57.57,0,0,1,.37-.09h.43V5.18a.48.48,0,0,1,.11-.37.67.67,0,0,1,.42-.1h.9a.67.67,0,0,1,.42.1.48.48,0,0,1,.1.37V6.52h.9a.59.59,0,0,1,.38.09.46.46,0,0,1,.1.35v.61A.51.51,0,0,1,79,8a.53.53,0,0,1-.38.1h-.9v2.58a1.08,1.08,0,0,0,.15.64.58.58,0,0,0,.49.2h.21a.65.65,0,0,1,.41.09.53.53,0,0,1,.09.37v.75A.52.52,0,0,1,79,13a.68.68,0,0,1-.42.09Z" transform="translate(0)"/><path class="cls-1" d="M82.7,13.31a4.44,4.44,0,0,1-1.11-.13,2.7,2.7,0,0,1-.85-.32,1.62,1.62,0,0,1-.6-.59,1.37,1.37,0,0,1-.22-.73.37.37,0,0,1,.42-.41h1a.8.8,0,0,1,.33,0,.5.5,0,0,1,.16.22c.1.26.39.38.88.38a1.24,1.24,0,0,0,.64-.11.45.45,0,0,0,.19-.4.47.47,0,0,0-.19-.39,2.93,2.93,0,0,0-.81-.31l-.8-.22C80.58,10,80,9.41,80,8.51V8.34a1.71,1.71,0,0,1,.74-1.45,3.26,3.26,0,0,1,2-.54,5.26,5.26,0,0,1,1.23.14,2.22,2.22,0,0,1,.86.41A1.45,1.45,0,0,1,85.39,8a.41.41,0,0,1-.11.32.57.57,0,0,1-.39.1H84a.65.65,0,0,1-.29,0,.4.4,0,0,1-.17-.19c-.13-.25-.42-.38-.87-.38a1.08,1.08,0,0,0-.56.13.42.42,0,0,0-.21.38.37.37,0,0,0,.18.33,2.42,2.42,0,0,0,.67.25l.91.24A2.79,2.79,0,0,1,85,9.85a1.69,1.69,0,0,1,.44,1.2v.17a1.84,1.84,0,0,1-.71,1.54A3.31,3.31,0,0,1,82.7,13.31Z" transform="translate(0)"/><path class="cls-1" d="M8.27,10.71,7,12.93H3.32l2.53-2.22Z" transform="translate(0)"/><path class="cls-1" d="M5.35,15.84H0l2.53-2.22H6.6Z" transform="translate(0)"/><polygon class="cls-1" points="11.4 11.09 11.72 12.93 8.02 12.93 8.77 11.09 10.11 12.57 11.4 11.09"/><path class="cls-1" d="M6.8,15.83l.9-2.2h4.16l.38,2.2Z" transform="translate(0)"/><path class="cls-1" d="M16.41,12.93h-3.7L12,10.7h2.41Z" transform="translate(0)"/><path class="cls-1" d="M13.62,15.83l-.71-2.2h4.15l2,2.2Z" transform="translate(0)"/><path class="cls-2" d="M12.44.72a4.18,4.18,0,0,0-4.61,0A4.25,4.25,0,0,0,6,5.14a9.19,9.19,0,0,0,.81,2.42l0,.07.08.15c.19.36.4.7.62,1s.45.63.69.95c.57.73,1.2,1.43,1.86,2.13.58-.62,1.14-1.25,1.66-1.9l.52-.69c.18-.25.36-.51.52-.78s.17-.27.25-.41.16-.28.23-.42a9.77,9.77,0,0,0,.88-2.39A4.27,4.27,0,0,0,12.44.72ZM10.13,2a1.61,1.61,0,0,1,1.53,1.64A1.58,1.58,0,0,1,10.1,5.14,1.61,1.61,0,0,1,8.51,3.56,1.67,1.67,0,0,1,10.13,2Z" transform="translate(0)"/></g></g></svg>