<svg xmlns="http://www.w3.org/2000/svg" viewBox="0 0 63.86 44.74"><defs><style>.cls-1{fill:#1b6d38;}</style></defs><title>youtube</title><g id="Layer_2" data-name="Layer 2"><g id="Layer_1-2" data-name="Layer 1"><path class="cls-1" d="M62.24,5.8c2.29,6,2.19,28-.55,33.8a7.71,7.71,0,0,1-3.48,3.5c-2.15,1.11-14.65,1.64-26.89,1.64-11.26,0-22.32-.45-24.9-1.29a7.41,7.41,0,0,1-4.88-4.77C-.52,32.85-1,8.43,3.15,3.62A8,8,0,0,1,8.5.79C13.42.26,22.89,0,32.23,0,43.86,0,55.29.4,57.46,1.19A7.53,7.53,0,0,1,62.24,5.8ZM24,32c6.63-3.45,13.23-6.85,19.9-10.3L24.16,11.36C24.1,18.26,24.05,25.08,24,32"/></g></g></svg>